<svg width="709" height="983" viewBox="0 0 709 983" fill="none" xmlns="http://www.w3.org/2000/svg">
<path fill-rule="evenodd" clip-rule="evenodd" d="M252.995 61.5715C275.08 27.9376 311.856 5 355.052 5C402.968 5 443.188 33.0918 463.971 72.8614C466.292 72.2896 468.579 71.6313 470.864 70.9739C477.12 69.1735 483.356 67.3789 490.206 67.3789C553.117 67.3789 604.567 118.83 604.567 181.74C604.567 222.975 581.716 257.891 548.727 277.786C546.979 280.149 544.751 282.114 542.188 283.553V396.777C542.559 399.022 542.559 401.314 542.188 403.559V482.49C591.6 498.026 627.522 544.252 627.522 598.737V621.016C627.522 641.959 644.5 658.937 665.443 658.937C686.387 658.937 703.365 675.915 703.365 696.859V803.04C703.365 823.984 686.387 840.962 665.443 840.962C644.5 840.962 627.522 857.94 627.522 878.883V937.48C627.522 959.571 609.613 977.48 587.522 977.48H121.448C99.3571 977.48 81.4485 959.571 81.4485 937.48V878.883C81.4485 857.94 64.4703 840.962 43.5267 840.962C22.5831 840.962 5.60498 823.984 5.60498 803.04V696.859C5.60498 675.915 22.5831 658.937 43.5267 658.937C64.4703 658.937 81.4485 641.959 81.4485 621.016V598.737C81.4485 543.836 117.92 497.321 167.915 482.14V403.356C167.544 401.11 167.544 398.819 167.915 396.574V281.725C131.352 262.703 105.536 225.703 105.536 181.74C105.536 118.83 156.987 67.3789 219.897 67.3789C226.799 67.3789 233.088 69.1772 239.397 70.9811C241.108 71.4705 242.821 71.9603 244.548 72.4147C244.809 71.911 245.024 71.3871 245.239 70.8634C245.486 70.2599 245.733 69.6565 246.051 69.0846C247.704 66.041 250.091 63.4585 252.995 61.5715ZM433.269 102.792C421.98 70.1258 391.619 46.5859 355.052 46.5859C318.484 46.5859 288.123 70.1258 276.834 102.792C276.535 103.626 276.182 104.44 275.778 105.229C271.651 118.571 270.684 132.904 273.667 146.936C274.235 149.608 274.272 152.366 273.774 155.053C273.277 157.739 272.255 160.301 270.767 162.592C269.28 164.883 267.355 166.859 265.104 168.407C262.853 169.954 260.318 171.043 257.646 171.611C254.974 172.179 252.216 172.215 249.53 171.717C246.844 171.219 244.282 170.197 241.991 168.709C239.7 167.221 237.724 165.296 236.177 163.045C234.63 160.793 233.542 158.259 232.974 155.587C229.752 140.429 229.504 125.079 231.878 110.224C227.957 109.555 224.01 108.965 219.897 108.965C179.467 108.965 147.122 141.31 147.122 181.74C147.122 213.51 167.394 239.937 195.652 249.967C199.705 251.404 203.214 254.061 205.694 257.574C208.174 261.087 209.504 265.282 209.501 269.582V379.273H271.88V316.895C271.804 311.387 273.917 306.074 277.754 302.123C281.592 298.171 286.84 295.903 292.348 295.817C295.13 295.774 297.892 296.289 300.471 297.332C303.05 298.376 305.394 299.926 307.363 301.891C309.332 303.857 310.887 306.197 311.935 308.774C312.983 311.351 313.504 314.113 313.466 316.895V379.273H396.638V358.48C396.562 352.973 398.675 347.66 402.512 343.709C406.35 339.757 411.598 337.489 417.106 337.403C419.887 337.36 422.65 337.875 425.229 338.918C427.808 339.962 430.151 341.512 432.12 343.477C434.09 345.443 435.644 347.783 436.693 350.36C437.741 352.937 438.262 355.699 438.223 358.48V379.273H500.602V295.371C492.983 296.07 485.269 296.285 477.495 295.411C472.012 294.792 467 292.02 463.562 287.706C460.123 283.391 458.539 277.887 459.159 272.405C459.778 266.923 462.55 261.911 466.864 258.472C471.179 255.033 476.682 253.45 482.165 254.069C492.301 255.208 502.346 254.118 511.77 251.186C512.634 250.717 513.53 250.309 514.451 249.967C542.709 239.937 562.981 213.51 562.981 181.74C562.981 141.31 530.636 108.965 490.206 108.965C479.917 108.965 470.198 111.151 461.209 115.057C458.582 116.199 455.747 116.786 452.882 116.781C450.017 116.776 447.184 116.179 444.56 115.027C441.937 113.876 439.58 112.194 437.637 110.089C435.694 107.983 434.207 105.499 433.269 102.792ZM289.18 420.859H209.501V462.445H500.602V420.859H420.72C418.475 421.23 416.183 421.23 413.938 420.859H295.962C293.717 421.23 291.426 421.23 289.18 420.859ZM505.698 507.25C556.122 507.25 597.184 548.312 597.184 598.737V907.143C597.184 929.234 579.276 947.143 557.184 947.143H546.172C524.081 947.143 506.172 929.234 506.172 907.143V865.793C506.172 843.702 488.263 825.793 466.172 825.793H242.798C220.707 825.793 202.798 843.702 202.798 865.793V907.143C202.798 929.234 184.889 947.143 162.798 947.143H151.786C129.694 947.143 111.786 929.234 111.786 907.143V598.737C111.786 548.312 152.848 507.25 203.272 507.25H505.698ZM255.889 598.263C218.263 598.263 187.629 628.896 187.629 666.522C187.629 704.147 218.263 734.781 255.889 734.781C293.514 734.781 324.148 704.147 324.148 666.522C324.148 628.896 293.514 598.263 255.889 598.263ZM453.082 598.263C415.456 598.263 384.822 628.896 384.822 666.522C384.822 704.147 415.456 734.781 453.082 734.781C490.707 734.781 521.341 704.147 521.341 666.522C521.341 628.896 490.707 598.263 453.082 598.263ZM255.889 628.6C276.805 628.6 293.81 645.605 293.81 666.522C293.81 687.438 276.805 704.443 255.889 704.443C234.972 704.443 217.967 687.438 217.967 666.522C217.967 645.605 234.972 628.6 255.889 628.6ZM453.082 628.6C473.998 628.6 491.003 645.605 491.003 666.522C491.003 687.438 473.998 704.443 453.082 704.443C432.165 704.443 415.16 687.438 415.16 666.522C415.16 645.605 432.165 628.6 453.082 628.6ZM35.9424 712.028C35.9424 699.462 46.1293 689.275 58.6954 689.275C71.2616 689.275 81.4485 699.462 81.4485 712.028V787.871C81.4485 800.437 71.2616 810.624 58.6954 810.624C46.1293 810.624 35.9424 800.437 35.9424 787.871V712.028ZM627.522 712.028C627.522 699.462 637.709 689.275 650.275 689.275C662.841 689.275 673.028 699.462 673.028 712.028V787.871C673.028 800.437 662.841 810.624 650.275 810.624C637.709 810.624 627.522 800.437 627.522 787.871V712.028ZM233.135 886.468C233.135 869.713 246.718 856.13 263.473 856.13C280.228 856.13 293.81 869.713 293.81 886.468V916.805C293.81 933.56 280.228 947.143 263.473 947.143C246.718 947.143 233.135 933.56 233.135 916.805V886.468ZM324.148 886.468C324.148 869.713 337.73 856.13 354.485 856.13C371.24 856.13 384.822 869.713 384.822 886.468V916.805C384.822 933.56 371.24 947.143 354.485 947.143C337.73 947.143 324.148 933.56 324.148 916.805V886.468ZM415.16 886.468C415.16 869.713 428.742 856.13 445.497 856.13C462.252 856.13 475.835 869.713 475.835 886.468V916.805C475.835 933.56 462.252 947.143 445.497 947.143C428.742 947.143 415.16 933.56 415.16 916.805V886.468Z" fill="white"/>
<path d="M252.995 61.5715L255.719 65.7643L256.599 65.1928L257.175 64.3159L252.995 61.5715ZM463.971 72.8614L459.54 75.1772L461.357 78.6551L465.167 77.7162L463.971 72.8614ZM470.864 70.9739L472.247 75.7789L472.247 75.7789L470.864 70.9739ZM548.727 277.786L546.145 273.504L545.296 274.016L544.707 274.813L548.727 277.786ZM542.188 283.553L539.74 279.193L537.188 280.626V283.553H542.188ZM542.188 396.777H537.188V397.187L537.255 397.592L542.188 396.777ZM542.188 403.559L537.255 402.744L537.188 403.149V403.559H542.188ZM542.188 482.49H537.188V486.16L540.689 487.26L542.188 482.49ZM167.915 482.14L169.368 486.925L172.915 485.847V482.14H167.915ZM167.915 403.356H172.915V402.946L172.848 402.541L167.915 403.356ZM167.915 396.574L172.848 397.389L172.915 396.984V396.574H167.915ZM167.915 281.725H172.915V278.69L170.223 277.29L167.915 281.725ZM239.397 70.9811L240.771 66.1737L240.771 66.1737L239.397 70.9811ZM244.548 72.4147L243.276 77.2501L247.147 78.2685L248.988 74.7149L244.548 72.4147ZM245.239 70.8634L249.865 72.7592L249.865 72.7591L245.239 70.8634ZM246.051 69.0846L250.421 71.5135L250.433 71.4923L250.445 71.4709L246.051 69.0846ZM433.269 102.792L428.543 104.425L428.544 104.428L433.269 102.792ZM276.834 102.792L281.54 104.483L281.55 104.454L281.56 104.425L276.834 102.792ZM275.778 105.229L271.327 102.952L271.13 103.337L271.002 103.751L275.778 105.229ZM273.667 146.936L268.776 147.976L268.776 147.977L273.667 146.936ZM270.767 162.592L266.574 159.869L266.574 159.869L270.767 162.592ZM265.104 168.407L262.272 164.286L262.272 164.286L265.104 168.407ZM257.646 171.611L256.607 166.72L256.607 166.72L257.646 171.611ZM249.53 171.717L248.619 176.634L248.619 176.634L249.53 171.717ZM241.991 168.709L239.267 172.902L239.267 172.902L241.991 168.709ZM236.177 163.045L232.056 165.876L232.056 165.876L236.177 163.045ZM232.974 155.587L237.865 154.548L237.865 154.547L232.974 155.587ZM231.878 110.224L236.815 111.013L237.596 106.127L232.718 105.295L231.878 110.224ZM195.652 249.967L193.98 254.679L193.982 254.68L195.652 249.967ZM209.501 269.582L204.501 269.579V269.582H209.501ZM209.501 379.273H204.501V384.273H209.501V379.273ZM271.88 379.273V384.273H276.88V379.273H271.88ZM271.88 316.895H276.88V316.86L276.879 316.826L271.88 316.895ZM292.348 295.817L292.27 290.818L292.27 290.818L292.348 295.817ZM307.363 301.891L310.895 298.352L310.895 298.352L307.363 301.891ZM311.935 308.774L307.303 310.658L307.303 310.658L311.935 308.774ZM313.466 316.895L308.466 316.826L308.466 316.86V316.895H313.466ZM313.466 379.273H308.466V384.273H313.466V379.273ZM396.638 379.273V384.273H401.638V379.273H396.638ZM396.638 358.48H401.638V358.446L401.637 358.412L396.638 358.48ZM417.106 337.403L417.027 332.404L417.027 332.404L417.106 337.403ZM432.12 343.477L428.588 347.016L428.588 347.016L432.12 343.477ZM436.693 350.36L441.324 348.476L441.324 348.476L436.693 350.36ZM438.223 358.48L433.224 358.412L433.223 358.446V358.48H438.223ZM438.223 379.273H433.223V384.273H438.223V379.273ZM500.602 379.273V384.273H505.602V379.273H500.602ZM500.602 295.371H505.602V289.89L500.145 290.391L500.602 295.371ZM477.495 295.411L476.933 300.38L476.936 300.38L477.495 295.411ZM463.562 287.706L459.652 290.822L459.652 290.822L463.562 287.706ZM459.159 272.405L454.19 271.844L454.19 271.844L459.159 272.405ZM466.864 258.472L463.748 254.562L463.748 254.562L466.864 258.472ZM482.165 254.069L481.604 259.037L481.606 259.038L482.165 254.069ZM511.77 251.186L513.256 255.96L513.725 255.814L514.156 255.579L511.77 251.186ZM514.451 249.967L512.778 245.255L512.744 245.267L512.709 245.28L514.451 249.967ZM461.209 115.057L459.217 110.471L459.216 110.471L461.209 115.057ZM444.56 115.027L446.57 110.449L446.57 110.449L444.56 115.027ZM437.637 110.089L433.962 113.48L433.962 113.48L437.637 110.089ZM209.501 420.859V415.859H204.501V420.859H209.501ZM289.18 420.859L289.995 415.926L289.59 415.859H289.18V420.859ZM209.501 462.445H204.501V467.445H209.501V462.445ZM500.602 462.445V467.445H505.602V462.445H500.602ZM500.602 420.859H505.602V415.859H500.602V420.859ZM420.72 420.859V415.859H420.31L419.905 415.926L420.72 420.859ZM413.938 420.859L414.753 415.926L414.348 415.859H413.938V420.859ZM295.962 420.859V415.859H295.552L295.147 415.926L295.962 420.859ZM355.052 0C309.985 0 271.718 23.9489 248.816 58.8271L257.175 64.3159C278.443 31.9264 313.726 10 355.052 10V0ZM468.402 70.5457C446.857 29.3174 405.036 0 355.052 0V10C400.9 10 439.519 36.8663 459.54 75.1772L468.402 70.5457ZM469.481 66.1689C467.181 66.8307 464.986 67.4617 462.775 68.0066L465.167 77.7162C467.597 77.1175 469.977 76.432 472.247 75.7789L469.481 66.1689ZM490.206 62.3789C482.543 62.3789 475.645 64.395 469.481 66.1689L472.247 75.7789C478.595 73.9521 484.17 72.3789 490.206 72.3789V62.3789ZM609.567 181.74C609.567 116.068 555.878 62.3789 490.206 62.3789V72.3789C550.355 72.3789 599.567 121.591 599.567 181.74H609.567ZM551.309 282.068C585.617 261.377 609.567 224.929 609.567 181.74H599.567C599.567 221.021 577.814 254.405 546.145 273.504L551.309 282.068ZM544.636 287.913C547.815 286.128 550.579 283.69 552.747 280.759L544.707 274.813C543.379 276.607 541.687 278.1 539.74 279.193L544.636 287.913ZM547.188 396.777V283.553H537.188V396.777H547.188ZM547.121 404.374C547.582 401.589 547.582 398.747 547.121 395.962L537.255 397.592C537.537 399.298 537.537 401.038 537.255 402.744L547.121 404.374ZM547.188 482.49V403.559H537.188V482.49H547.188ZM632.522 598.737C632.522 542.002 595.119 493.891 543.688 477.721L540.689 487.26C588.081 502.161 622.522 546.501 622.522 598.737H632.522ZM632.522 621.016V598.737H622.522V621.016H632.522ZM665.443 653.937C647.261 653.937 632.522 639.198 632.522 621.016H622.522C622.522 644.721 641.738 663.937 665.443 663.937V653.937ZM708.365 696.859C708.365 673.154 689.148 653.937 665.443 653.937V663.937C683.626 663.937 698.365 678.677 698.365 696.859H708.365ZM708.365 803.04V696.859H698.365V803.04H708.365ZM665.443 845.962C689.148 845.962 708.365 826.745 708.365 803.04H698.365C698.365 821.222 683.626 835.962 665.443 835.962V845.962ZM632.522 878.883C632.522 860.701 647.261 845.962 665.443 845.962V835.962C641.738 835.962 622.522 855.178 622.522 878.883H632.522ZM632.522 937.48V878.883H622.522V937.48H632.522ZM587.522 982.48C612.374 982.48 632.522 962.333 632.522 937.48H622.522C622.522 956.81 606.852 972.48 587.522 972.48V982.48ZM121.448 982.48H587.522V972.48H121.448V982.48ZM76.4485 937.48C76.4485 962.333 96.5957 982.48 121.448 982.48V972.48C102.119 972.48 86.4485 956.81 86.4485 937.48H76.4485ZM76.4485 878.883V937.48H86.4485V878.883H76.4485ZM43.5267 845.962C61.7089 845.962 76.4485 860.701 76.4485 878.883H86.4485C86.4485 855.178 67.2318 835.962 43.5267 835.962V845.962ZM0.60498 803.04C0.60498 826.745 19.8217 845.962 43.5267 845.962V835.962C25.3445 835.962 10.605 821.222 10.605 803.04H0.60498ZM0.60498 696.859V803.04H10.605V696.859H0.60498ZM43.5267 653.937C19.8217 653.937 0.60498 673.154 0.60498 696.859H10.605C10.605 678.677 25.3446 663.937 43.5267 663.937V653.937ZM76.4485 621.016C76.4485 639.198 61.7089 653.937 43.5267 653.937V663.937C67.2317 663.937 86.4485 644.721 86.4485 621.016H76.4485ZM76.4485 598.737V621.016H86.4485V598.737H76.4485ZM166.462 477.356C114.423 493.158 76.4485 541.569 76.4485 598.737H86.4485C86.4485 546.103 121.417 501.485 169.368 486.925L166.462 477.356ZM162.915 403.356V482.14H172.915V403.356H162.915ZM162.982 395.758C162.521 398.544 162.521 401.386 162.982 404.171L172.848 402.541C172.566 400.835 172.566 399.095 172.848 397.389L162.982 395.758ZM162.915 281.725V396.574H172.915V281.725H162.915ZM100.536 181.74C100.536 227.77 127.577 266.375 165.607 286.161L170.223 277.29C135.127 259.03 110.536 223.636 110.536 181.74H100.536ZM219.897 62.3789C154.225 62.3789 100.536 116.068 100.536 181.74H110.536C110.536 121.591 159.748 72.3789 219.897 72.3789V62.3789ZM240.771 66.1737C234.554 64.3961 227.608 62.3789 219.897 62.3789V72.3789C225.991 72.3789 231.622 73.9583 238.022 75.7884L240.771 66.1737ZM245.821 67.5793C244.153 67.1406 242.491 66.6655 240.771 66.1737L238.022 75.7884C239.725 76.2754 241.489 76.78 243.276 77.2501L245.821 67.5793ZM240.612 68.9675C240.383 69.5257 240.25 69.8418 240.109 70.1145L248.988 74.7149C249.368 73.9803 249.665 73.2486 249.865 72.7592L240.612 68.9675ZM241.681 66.6556C241.195 67.5296 240.841 68.4095 240.612 68.9676L249.865 72.7591C250.131 72.1102 250.271 71.7835 250.421 71.5135L241.681 66.6556ZM250.271 57.3787C246.669 59.7193 243.708 62.9228 241.657 66.6982L250.445 71.4709C251.7 69.1591 253.513 67.1976 255.719 65.7643L250.271 57.3787ZM355.052 51.5859C389.37 51.5859 417.912 73.6611 428.543 104.425L437.995 101.159C426.048 66.5906 393.868 41.5859 355.052 41.5859V51.5859ZM281.56 104.425C292.192 73.6611 320.733 51.5859 355.052 51.5859V41.5859C316.235 41.5859 284.055 66.5906 272.108 101.159L281.56 104.425ZM280.23 107.505C280.73 106.527 281.168 105.517 281.54 104.483L272.129 101.101C271.901 101.734 271.633 102.352 271.327 102.952L280.23 107.505ZM278.557 145.897C275.766 132.763 276.66 119.298 280.555 106.706L271.002 103.751C266.642 117.845 265.602 133.045 268.776 147.976L278.557 145.897ZM278.691 155.963C279.308 152.631 279.262 149.21 278.557 145.896L268.776 147.977C269.208 150.007 269.236 152.102 268.858 154.142L278.691 155.963ZM274.961 165.315C276.806 162.473 278.074 159.295 278.691 155.963L268.858 154.142C268.48 156.183 267.704 158.129 266.574 159.869L274.961 165.315ZM267.936 172.527C270.729 170.608 273.116 168.157 274.961 165.315L266.574 159.869C265.444 161.61 263.982 163.111 262.272 164.286L267.936 172.527ZM258.686 176.502C262 175.797 265.144 174.447 267.936 172.527L262.272 164.286C260.561 165.462 258.636 166.289 256.607 166.72L258.686 176.502ZM248.619 176.634C251.95 177.251 255.371 177.207 258.686 176.502L256.607 166.72C254.577 167.152 252.482 167.179 250.441 166.801L248.619 176.634ZM239.267 172.902C242.109 174.748 245.287 176.016 248.619 176.634L250.441 166.801C248.401 166.423 246.455 165.646 244.714 164.516L239.267 172.902ZM232.056 165.876C233.975 168.669 236.426 171.057 239.267 172.902L244.714 164.516C242.974 163.386 241.473 161.924 240.298 160.213L232.056 165.876ZM228.083 156.625C228.787 159.94 230.137 163.084 232.056 165.876L240.298 160.213C239.123 158.503 238.296 156.578 237.865 154.548L228.083 156.625ZM226.94 109.435C224.473 124.875 224.729 140.845 228.083 156.626L237.865 154.547C234.776 140.013 234.534 125.284 236.815 111.013L226.94 109.435ZM219.897 113.965C223.558 113.965 227.152 114.49 231.037 115.153L232.718 105.295C228.763 104.62 224.462 103.965 219.897 103.965V113.965ZM152.122 181.74C152.122 144.071 182.228 113.965 219.897 113.965V103.965C176.706 103.965 142.122 138.548 142.122 181.74H152.122ZM197.325 245.255C170.955 235.896 152.122 211.283 152.122 181.74H142.122C142.122 215.737 163.833 243.979 193.98 254.679L197.325 245.255ZM209.778 254.69C206.702 250.333 202.35 247.036 197.323 245.254L193.982 254.68C197.061 255.771 199.725 257.79 201.609 260.458L209.778 254.69ZM214.501 269.586C214.505 264.252 212.855 259.048 209.778 254.69L201.609 260.458C203.493 263.126 204.503 266.313 204.501 269.579L214.501 269.586ZM214.501 379.273V269.582H204.501V379.273H214.501ZM271.88 374.273H209.501V384.273H271.88V374.273ZM266.88 316.895V379.273H276.88V316.895H266.88ZM274.167 298.639C269.407 303.541 266.787 310.131 266.88 316.963L276.879 316.826C276.822 312.643 278.427 308.607 281.341 305.606L274.167 298.639ZM292.27 290.818C285.438 290.925 278.928 293.738 274.167 298.639L281.341 305.606C284.256 302.605 288.243 300.882 292.426 300.817L292.27 290.818ZM302.346 292.697C299.147 291.403 295.72 290.764 292.27 290.818L292.426 300.817C294.539 300.784 296.637 301.175 298.596 301.967L302.346 292.697ZM310.895 298.352C308.452 295.914 305.545 293.991 302.346 292.697L298.596 301.967C300.555 302.76 302.335 303.937 303.831 305.43L310.895 298.352ZM316.566 306.89C315.266 303.694 313.337 300.79 310.895 298.352L303.831 305.43C305.326 306.923 306.507 308.701 307.303 310.658L316.566 306.89ZM318.465 316.963C318.512 313.512 317.867 310.087 316.566 306.89L307.303 310.658C308.1 312.616 308.495 314.713 308.466 316.826L318.465 316.963ZM318.466 379.273V316.895H308.466V379.273H318.466ZM396.638 374.273H313.466V384.273H396.638V374.273ZM391.638 358.48V379.273H401.638V358.48H391.638ZM398.925 340.225C394.165 345.127 391.544 351.717 391.638 358.549L401.637 358.412C401.58 354.229 403.185 350.193 406.099 347.192L398.925 340.225ZM417.027 332.404C410.196 332.511 403.685 335.324 398.925 340.225L406.099 347.192C409.014 344.19 413 342.468 417.184 342.403L417.027 332.404ZM427.104 334.283C423.905 332.989 420.478 332.35 417.027 332.404L417.184 342.403C419.297 342.37 421.395 342.761 423.354 343.553L427.104 334.283ZM435.653 339.938C433.21 337.5 430.303 335.577 427.104 334.283L423.354 343.553C425.313 344.346 427.093 345.523 428.588 347.016L435.653 339.938ZM441.324 348.476C440.024 345.28 438.095 342.376 435.653 339.938L428.588 347.016C430.084 348.509 431.265 350.287 432.061 352.244L441.324 348.476ZM443.223 358.549C443.27 355.098 442.625 351.673 441.324 348.476L432.061 352.244C432.857 354.202 433.253 356.299 433.224 358.412L443.223 358.549ZM443.223 379.273V358.48H433.223V379.273H443.223ZM500.602 374.273H438.223V384.273H500.602V374.273ZM495.602 295.371V379.273H505.602V295.371H495.602ZM476.936 300.38C485.16 301.304 493.236 301.068 501.059 300.35L500.145 290.391C492.729 291.072 485.379 291.266 478.053 290.442L476.936 300.38ZM459.652 290.822C463.917 296.173 470.133 299.611 476.933 300.38L478.056 290.443C473.891 289.972 470.084 287.867 467.472 284.589L459.652 290.822ZM454.19 271.844C453.422 278.644 455.387 285.47 459.652 290.822L467.472 284.589C464.86 281.312 463.656 277.131 464.127 272.966L454.19 271.844ZM463.748 254.562C458.396 258.827 454.958 265.044 454.19 271.844L464.127 272.966C464.597 268.802 466.703 264.994 469.981 262.382L463.748 254.562ZM482.726 249.1C475.926 248.332 469.099 250.297 463.748 254.562L469.98 262.382C473.258 259.77 477.439 258.567 481.604 259.037L482.726 249.1ZM510.285 246.411C501.488 249.149 492.138 250.158 482.723 249.1L481.606 259.038C492.463 260.258 503.204 259.088 513.256 255.96L510.285 246.411ZM512.709 245.28C511.567 245.705 510.456 246.21 509.384 246.792L514.156 255.579C514.812 255.223 515.493 254.914 516.192 254.654L512.709 245.28ZM557.981 181.74C557.981 211.283 539.148 235.896 512.778 245.255L516.123 254.679C546.27 243.979 567.981 215.737 567.981 181.74H557.981ZM490.206 113.965C527.875 113.965 557.981 144.071 557.981 181.74H567.981C567.981 138.548 533.398 103.965 490.206 103.965V113.965ZM463.202 119.642C471.597 115.994 480.64 113.965 490.206 113.965V103.965C479.193 103.965 468.798 106.307 459.217 110.471L463.202 119.642ZM452.873 121.781C456.427 121.787 459.944 121.059 463.203 119.642L459.216 110.471C457.22 111.339 455.067 111.785 452.891 111.781L452.873 121.781ZM442.551 119.605C445.805 121.034 449.319 121.774 452.873 121.781L452.891 111.781C450.714 111.777 448.563 111.323 446.57 110.449L442.551 119.605ZM433.962 113.48C436.372 116.092 439.296 118.177 442.551 119.605L446.57 110.449C444.577 109.574 442.787 108.297 441.311 106.698L433.962 113.48ZM428.544 104.428C429.707 107.787 431.552 110.868 433.962 113.48L441.311 106.698C439.835 105.099 438.706 103.212 437.993 101.155L428.544 104.428ZM209.501 425.859H289.18V415.859H209.501V425.859ZM214.501 462.445V420.859H204.501V462.445H214.501ZM500.602 457.445H209.501V467.445H500.602V457.445ZM495.602 420.859V462.445H505.602V420.859H495.602ZM420.72 425.859H500.602V415.859H420.72V425.859ZM413.123 425.792C415.908 426.253 418.75 426.253 421.535 425.792L419.905 415.926C418.199 416.208 416.459 416.208 414.753 415.926L413.123 425.792ZM295.962 425.859H413.938V415.859H295.962V425.859ZM288.365 425.792C291.15 426.253 293.992 426.253 296.777 425.792L295.147 415.926C293.441 416.208 291.701 416.208 289.995 415.926L288.365 425.792ZM602.184 598.737C602.184 545.551 558.884 502.25 505.698 502.25V512.25C553.361 512.25 592.184 551.074 592.184 598.737H602.184ZM602.184 907.143V598.737H592.184V907.143H602.184ZM557.184 952.143C582.037 952.143 602.184 931.995 602.184 907.143H592.184C592.184 926.473 576.514 942.143 557.184 942.143V952.143ZM546.172 952.143H557.184V942.143H546.172V952.143ZM501.172 907.143C501.172 931.995 521.319 952.143 546.172 952.143V942.143C526.842 942.143 511.172 926.473 511.172 907.143H501.172ZM501.172 865.793V907.143H511.172V865.793H501.172ZM466.172 830.793C485.502 830.793 501.172 846.463 501.172 865.793H511.172C511.172 840.94 491.025 820.793 466.172 820.793V830.793ZM242.798 830.793H466.172V820.793H242.798V830.793ZM207.798 865.793C207.798 846.463 223.468 830.793 242.798 830.793V820.793C217.945 820.793 197.798 840.94 197.798 865.793H207.798ZM207.798 907.143V865.793H197.798V907.143H207.798ZM162.798 952.143C187.651 952.143 207.798 931.995 207.798 907.143H197.798C197.798 926.473 182.128 942.143 162.798 942.143V952.143ZM151.786 952.143H162.798V942.143H151.786V952.143ZM106.786 907.143C106.786 931.995 126.933 952.143 151.786 952.143V942.143C132.456 942.143 116.786 926.473 116.786 907.143H106.786ZM106.786 598.737V907.143H116.786V598.737H106.786ZM203.272 502.25C150.087 502.25 106.786 545.551 106.786 598.737H116.786C116.786 551.074 155.609 512.25 203.272 512.25V502.25ZM505.698 502.25H203.272V512.25H505.698V502.25ZM192.629 666.522C192.629 631.658 221.024 603.263 255.889 603.263V593.263C215.502 593.263 182.629 626.135 182.629 666.522H192.629ZM255.889 729.781C221.024 729.781 192.629 701.386 192.629 666.522H182.629C182.629 706.909 215.502 739.781 255.889 739.781V729.781ZM319.148 666.522C319.148 701.386 290.753 729.781 255.889 729.781V739.781C296.275 739.781 329.148 706.909 329.148 666.522H319.148ZM255.889 603.263C290.753 603.263 319.148 631.658 319.148 666.522H329.148C329.148 626.135 296.275 593.263 255.889 593.263V603.263ZM389.822 666.522C389.822 631.658 418.218 603.263 453.082 603.263V593.263C412.695 593.263 379.822 626.135 379.822 666.522H389.822ZM453.082 729.781C418.218 729.781 389.822 701.386 389.822 666.522H379.822C379.822 706.909 412.695 739.781 453.082 739.781V729.781ZM516.341 666.522C516.341 701.386 487.946 729.781 453.082 729.781V739.781C493.469 739.781 526.341 706.909 526.341 666.522H516.341ZM453.082 603.263C487.946 603.263 516.341 631.658 516.341 666.522H526.341C526.341 626.135 493.469 593.263 453.082 593.263V603.263ZM298.81 666.522C298.81 642.844 279.566 623.6 255.889 623.6V633.6C274.043 633.6 288.81 648.367 288.81 666.522H298.81ZM255.889 709.443C279.566 709.443 298.81 690.199 298.81 666.522H288.81C288.81 684.676 274.043 699.443 255.889 699.443V709.443ZM212.967 666.522C212.967 690.199 232.211 709.443 255.889 709.443V699.443C237.734 699.443 222.967 684.676 222.967 666.522H212.967ZM255.889 623.6C232.211 623.6 212.967 642.844 212.967 666.522H222.967C222.967 648.367 237.734 633.6 255.889 633.6V623.6ZM496.003 666.522C496.003 642.844 476.759 623.6 453.082 623.6V633.6C471.236 633.6 486.003 648.367 486.003 666.522H496.003ZM453.082 709.443C476.759 709.443 496.003 690.199 496.003 666.522H486.003C486.003 684.676 471.236 699.443 453.082 699.443V709.443ZM410.16 666.522C410.16 690.199 429.404 709.443 453.082 709.443V699.443C434.927 699.443 420.16 684.676 420.16 666.522H410.16ZM453.082 623.6C429.404 623.6 410.16 642.844 410.16 666.522H420.16C420.16 648.367 434.927 633.6 453.082 633.6V623.6ZM58.6954 684.275C43.3678 684.275 30.9424 696.7 30.9424 712.028H40.9424C40.9424 702.223 48.8907 694.275 58.6954 694.275V684.275ZM86.4485 712.028C86.4485 696.7 74.023 684.275 58.6954 684.275V694.275C68.5002 694.275 76.4485 702.223 76.4485 712.028H86.4485ZM86.4485 787.871V712.028H76.4485V787.871H86.4485ZM58.6954 815.624C74.023 815.624 86.4485 803.199 86.4485 787.871H76.4485C76.4485 797.676 68.5002 805.624 58.6954 805.624V815.624ZM30.9424 787.871C30.9424 803.199 43.3679 815.624 58.6954 815.624V805.624C48.8907 805.624 40.9424 797.676 40.9424 787.871H30.9424ZM30.9424 712.028V787.871H40.9424V712.028H30.9424ZM650.275 684.275C634.947 684.275 622.522 696.7 622.522 712.028H632.522C632.522 702.223 640.47 694.275 650.275 694.275V684.275ZM678.028 712.028C678.028 696.7 665.602 684.275 650.275 684.275V694.275C660.079 694.275 668.028 702.223 668.028 712.028H678.028ZM678.028 787.871V712.028H668.028V787.871H678.028ZM650.275 815.624C665.602 815.624 678.028 803.199 678.028 787.871H668.028C668.028 797.676 660.079 805.624 650.275 805.624V815.624ZM622.522 787.871C622.522 803.199 634.947 815.624 650.275 815.624V805.624C640.47 805.624 632.522 797.676 632.522 787.871H622.522ZM622.522 712.028V787.871H632.522V712.028H622.522ZM263.473 851.13C243.957 851.13 228.135 866.951 228.135 886.468H238.135C238.135 872.474 249.479 861.13 263.473 861.13V851.13ZM298.81 886.468C298.81 866.951 282.989 851.13 263.473 851.13V861.13C277.466 861.13 288.81 872.474 288.81 886.468H298.81ZM298.81 916.805V886.468H288.81V916.805H298.81ZM263.473 952.143C282.989 952.143 298.81 936.321 298.81 916.805H288.81C288.81 930.799 277.466 942.143 263.473 942.143V952.143ZM228.135 916.805C228.135 936.321 243.957 952.143 263.473 952.143V942.143C249.479 942.143 238.135 930.799 238.135 916.805H228.135ZM228.135 886.468V916.805H238.135V886.468H228.135ZM354.485 851.13C334.969 851.13 319.148 866.951 319.148 886.468H329.148C329.148 872.474 340.492 861.13 354.485 861.13V851.13ZM389.822 886.468C389.822 866.951 374.001 851.13 354.485 851.13V861.13C368.479 861.13 379.822 872.474 379.822 886.468H389.822ZM389.822 916.805V886.468H379.822V916.805H389.822ZM354.485 952.143C374.001 952.143 389.822 936.321 389.822 916.805H379.822C379.822 930.799 368.479 942.143 354.485 942.143V952.143ZM319.148 916.805C319.148 936.321 334.969 952.143 354.485 952.143V942.143C340.492 942.143 329.148 930.799 329.148 916.805H319.148ZM319.148 886.468V916.805H329.148V886.468H319.148ZM445.497 851.13C425.981 851.13 410.16 866.951 410.16 886.468H420.16C420.16 872.474 431.504 861.13 445.497 861.13V851.13ZM480.835 886.468C480.835 866.951 465.014 851.13 445.497 851.13V861.13C459.491 861.13 470.835 872.474 470.835 886.468H480.835ZM480.835 916.805V886.468H470.835V916.805H480.835ZM445.497 952.143C465.014 952.143 480.835 936.321 480.835 916.805H470.835C470.835 930.799 459.491 942.143 445.497 942.143V952.143ZM410.16 916.805C410.16 936.321 425.981 952.143 445.497 952.143V942.143C431.504 942.143 420.16 930.799 420.16 916.805H410.16ZM410.16 886.468V916.805H420.16V886.468H410.16Z" fill="white"/>
</svg>
